<svg id="Capa_1" enable-background="new 0 0 512 512" height="512" viewBox="0 0 512 512" width="512" xmlns="http://www.w3.org/2000/svg"><g><g><path d="m54.837 219.692h431.299s-6.76 227.818-213.621 227.818-217.678-227.818-217.678-227.818z" fill="#9ec7ff"/><path clip-rule="evenodd" d="m237.368 221.044c-9.055-23.434-18.313-38.401-18.313-38.401s-23.779 13.578-49.19 38.401c-20.392 19.925-41.828 47.08-52.85 80.268-38.874-43.839-96.916-60.652-96.916-60.652s-26.665 81.338 7.6 146.191c34.266 64.852 116.486 88.66 116.486 88.66s.056-.17.156-.49l.001.006c.152.254.233.385.233.385s24.996-14.267 51.117-40.287c21.913-21.832 44.617-51.938 53.997-88.828 11.823-46.473-.071-93.595-12.321-125.253z" fill="#b6edba" fill-rule="evenodd"/><path d="m501.86 357.944h-50.075v-50.075h-66.531v50.075h-50.075v66.531h50.075v50.075h66.531v-50.075h50.075z" fill="#e58dbb"/><g fill="#dfedff"><circle cx="448.955" cy="83.813" r="47.321"/><path d="m286.204 221.551 115.599-121.683s15.717 32.449 38.026 31.435l-79.094 89.234z"/></g></g><g><path d="m501.86 347.804h-39.706c22.762-37.902 34.794-81.714 34.794-126.76 0-5.6-4.54-10.14-10.14-10.14h-103.924l63.092-69.707c36.697 1.994 61.54-26.652 60.441-57.384-1.133-31.664-25.777-57.462-57.462-57.462s-57.461 25.777-57.461 57.462c0 4 .413 7.904 1.195 11.676l-107.316 115.259c-.047.051-.086.105-.132.156h-41.007c-8.38-20.291-16.195-33.012-16.556-33.596-2.873-4.644-8.909-6.178-13.652-3.472-.978.559-23.376 13.465-48.245 37.067h-112.215c-5.6 0-10.14 4.54-10.14 10.14 0 5.894.213 11.799.624 17.672-11.9-5.063-20.077-7.491-21.131-7.796-5.249-1.522-10.754 1.39-12.456 6.581-1.143 3.489-27.594 86.21 8.271 154.087 3.82 7.23 9.893 20.894 20.364 15.021 3.821-2.143 5.874-6.648 4.972-10.938-.514-2.446-6.131-11.149-7.404-13.558-25.023-47.359-15.097-105.384-9.62-128.306 22.03 8.394 75.553 32.893 100.574 80.25 20.717 39.209 17.478 85.712 12.642 113.568l-53.033-97.084c-2.685-4.916-8.845-6.723-13.76-4.038-4.915 2.686-6.723 8.846-4.038 13.761l52.66 96.402c-4.944-2.361-10.542-5.309-16.703-8.989-4.807-2.872-11.033-1.303-13.906 3.506-2.872 4.808-1.303 11.033 3.505 13.905 28.269 16.887 46.666 20.274 47.435 20.409 1.499.265 3.061.18 4.525-.236.909-.219 26.255-14.632 51.243-38.419 23.15 8.129 47.347 12.254 71.993 12.254 35.137 0 68.818-8.208 100.106-24.396.051-.026 4.825 0 4.825 0v39.85c0 5.6 4.54 10.14 10.14 10.14h66.531c5.6 0 10.14-4.54 10.14-10.14v-39.935h39.935c5.6 0 10.14-4.54 10.14-10.14v-66.531c0-5.598-4.54-10.139-10.14-10.139zm-52.905-301.172c20.502 0 37.181 16.68 37.181 37.181s-16.679 37.18-37.181 37.18c-20.501 0-37.181-16.679-37.181-37.18s16.679-37.181 37.181-37.181zm-47.61 69.321c5.629 8.312 13.379 15.074 22.462 19.514l-68.278 75.437h-42.591zm-335.943 133.005c-.712-5.869-1.214-11.809-1.474-17.773h82.545c-14.222 16.581-25.327 33.875-33.185 51.707-15.596-14.685-32.745-25.817-47.886-33.934zm63.135 50.198c9.247-24.663 25.508-48.476 48.414-70.858 15.048-14.699 29.61-25.368 38.47-31.335 3.337 6.403 7.936 15.951 12.492 27.74 11.628 30.052 23.14 75.109 11.95 119.094-7.459 29.332-24.727 57.643-51.326 84.143-10.134 10.095-20.142 18.382-28.445 24.659 1.958-10.762 3.708-24.202 4.106-39.086.025-.072.056-.141.079-.214l25.604-78.587c1.734-5.325-1.175-11.047-6.501-12.782-5.323-1.738-11.047 1.176-12.783 6.5l-11.128 34.155c-2.927-12.782-7.385-25.639-13.918-38.004-4.896-9.263-10.677-17.718-17.014-25.425zm85.37 131.476c23.022-25.794 38.344-53.263 45.61-81.835 10.862-42.696 2.862-85.58-7.742-117.612h224.673c-1.099 25.155-6.308 49.733-15.305 72.774-1.531-3.658-5.143-6.23-9.357-6.23h-66.531c-5.6 0-10.14 4.54-10.14 10.14v39.935h-39.935c-5.6 0-10.14 4.54-10.14 10.14v66.531c0 2.25.742 4.322 1.982 6.004-18.324 5.533-37.333 8.337-56.838 8.337-19.176 0-38.049-2.749-56.277-8.184zm277.813-16.297h-39.935c-5.6 0-10.14 4.54-10.14 10.14v39.935h-46.251v-39.935c0-5.6-4.54-10.14-10.14-10.14h-39.935v-46.25h39.935c5.6 0 10.14-4.54 10.14-10.14v-39.935h46.251v39.935c0 5.6 4.54 10.14 10.14 10.14h39.935z"/><circle cx="63.794" cy="431.454" r="10"/></g></g></svg>